<svg xmlns="http://www.w3.org/2000/svg" viewBox="6 6 36 36" xmlnsV="https://vecta.io/nano"><path fill="#cfd8dc" d="M41 6H7a.94.94 0 0 0-1 1v35h36V7a.94.94 0 0 0-1-1z"/><path fill="#263238" d="M8 13h32v27H8z"/><path d="M22 27.6c-.1 1.1-.4 1.9-1 2.5s-1.4.9-2.5.9-2-.4-2.6-1.1-.9-1.8-.9-3.1v-1.6c0-1.3.3-2.4.9-3.1s1.5-1.1 2.6-1.1 1.9.3 2.5.9.9 1.4 1 2.6h-2c0-.7-.1-1.2-.3-1.4-.2-.3-.6-.4-1.1-.4s-.9.2-1.2.6c-.2.4-.3 1-.4 1.8v1.8c0 1 .1 1.6.3 2s.6.5 1.1.5.9-.1 1.1-.4.3-.7.3-1.4H22zm2-3.6c0-.3.1-.5.3-.7s.4-.3.7-.3.5.1.7.3.3.4.3.7-.1.5-.3.7-.4.3-.7.3-.5-.1-.7-.3-.3-.4-.3-.7zm0 6c0-.3.1-.5.3-.7s.4-.3.7-.3.5.1.7.3.3.4.3.7-.1.5-.3.7-.4.3-.7.3-.5-.1-.7-.3-.3-.4-.3-.7zm4-9h2l3 10h-2l-3-10z" fill="#76ff03"/><g fill="#90a4ae"><circle cx="13.5" cy="9.5" r="1.5"/><circle cx="9.5" cy="9.5" r="1.5"/></g></svg>