<svg xmlns="http://www.w3.org/2000/svg" width="256" height="185" preserveAspectRatio="xMidYMid" xmlnsV="https://vecta.io/nano"><path d="M250.716 70.497c-5.765-4-18.975-5.5-29.304-3.5-1.201-10-6.725-18.749-16.333-26.499l-5.524-4-3.843 5.75c-4.804 7.5-7.206 17.999-6.485 27.999.24 3.5 1.441 9.75 5.044 15.249-3.363 2-10.328 4.5-19.456 4.5H1.155l-.48 2c-1.681 10-1.681 41.248 18.015 65.247 14.892 18.249 36.99 27.499 66.053 27.499 62.931 0 109.528-30.249 131.386-84.997 8.647.25 27.142 0 36.509-18.749.24-.5.721-1.5 2.402-5.25l.961-2-5.284-3.25h0zM139.987 0h-26.421v24.999h26.421V0h0zm0 29.999h-26.421v24.999h26.421V29.999h0zm-31.225 0H82.34v24.999h26.421V29.999h0zm-31.225 0H51.115v24.999h26.421V29.999h0zM46.311 59.998H19.89v24.999h26.421V59.998h0zm31.225 0H51.115v24.999h26.421V59.998h0zm31.225 0H82.34v24.999h26.421V59.998h0zm31.225 0h-26.421v24.999h26.421V59.998h0zm31.225 0H144.79v24.999h26.421V59.998h0z" fill="#2396ed"/></svg>