<svg xmlns="http://www.w3.org/2000/svg" width="512" height="192" preserveAspectRatio="xMidYMid" xmlnsV="https://vecta.io/nano"><path d="M292.533 13.295l1.124.75c13.212 8.725 22.685 20.691 28.917 35.149 1.496 2.244.499 3.49-2.493 4.238l-5.064 1.295-31.826 8.378-6.443 1.679c-2.32.574-2.961.333-5.428-2.477l-.348-.399c-3.519-3.989-6.155-6.652-10.818-9.03l-.899-.443c-15.705-7.728-30.911-5.484-45.121 3.739-16.951 10.969-25.676 27.172-25.427 47.364.249 19.943 13.96 36.396 33.653 39.138 16.951 2.244 31.161-3.739 42.378-16.453 2.244-2.742 4.238-5.734 6.731-9.224h-48.112c-5.235 0-6.481-3.241-4.736-7.479l.864-2.034c3.204-7.454 8.173-18.169 11.4-24.295l.704-1.318c.862-1.494 2.612-3.513 5.977-3.513l80.224-.001c3.603-11.415 9.449-22.201 17.247-32.406 18.198-23.931 40.135-36.396 69.8-41.631 25.427-4.487 49.358-1.994 71.046 12.714 19.693 13.461 31.908 31.659 35.149 55.59 4.238 33.653-5.484 61.075-28.668 84.507-16.453 16.702-36.645 27.172-59.828 31.908-6.731 1.246-13.461 1.496-19.943 2.244-22.685-.499-43.376-6.98-60.825-21.937-12.273-10.609-20.727-23.648-24.928-38.828-2.915 5.888-6.401 11.526-10.47 16.891-17.948 23.682-41.381 38.39-71.046 42.378-24.43 3.241-47.115-1.496-67.058-16.453-18.447-13.96-28.917-32.407-31.659-55.341-3.241-27.172 4.736-51.602 21.189-73.04 17.699-23.183 41.132-37.891 69.8-43.126 22.999-4.159 45.037-1.595 64.936 11.465h0zM411.12 49.017l-.798.178c-23.183 5.235-38.141 19.943-43.625 43.376-4.487 19.444 4.986 39.138 22.934 47.115 13.711 5.983 27.421 5.235 40.633-1.496 19.693-10.221 30.413-26.175 31.659-47.613-.249-3.241-.249-5.734-.748-8.226-4.437-24.402-26.665-38.324-50.056-33.332h0zM116.416 94.564c.997 0 1.496.748 1.496 1.745l-.499 5.983c0 .997-.997 1.745-1.745 1.745l-54.344-.249c-.997 0-1.246-.748-.748-1.496l3.49-6.232c.499-.748 1.496-1.496 2.493-1.496h49.857zM121.9 71.63c.997 0 1.496.748 1.246 1.496l-1.994 5.983c-.249.997-1.246 1.496-2.244 1.496L.997 80.854c-.997 0-1.246-.499-.748-1.246l5.235-6.731c.499-.748 1.745-1.246 2.742-1.246H121.9zm12.963-22.934c.997 0 1.246.748.748 1.496l-4.238 6.481c-.499.748-1.745 1.496-2.493 1.496l-90.241-.249c-.997 0-1.246-.499-.748-1.246l5.235-6.731c.499-.748 1.745-1.246 2.742-1.246h88.995z" fill="#00acd7"/></svg>