<svg xmlns="http://www.w3.org/2000/svg" width="256" height="249" preserveAspectRatio="xMidYMid" xmlnsV="https://vecta.io/nano"><path d="M82.085 244.934a19.48 19.48 0 0 1-15.36-7.432L8.919 165.657c-3.799-4.79-5.285-10.901-3.799-16.846l20.645-89.683c1.321-5.946 5.285-10.735 10.735-13.378l83.572-39.969c2.643-1.321 5.615-1.982 8.588-1.982s5.946.661 8.588 1.982l83.572 39.804c5.45 2.643 9.414 7.432 10.735 13.378l20.645 89.683c1.321 5.946 0 12.057-3.799 16.846l-57.806 71.845c-3.799 4.625-9.414 7.432-15.36 7.432l-93.151.165h0z" fill="#326de6"/><path d="M128.495 7.928c2.312 0 4.625.495 6.772 1.486l83.572 39.804c4.294 2.147 7.597 6.111 8.588 10.735l20.645 89.683c1.156 4.79 0 9.745-3.138 13.543l-57.806 71.845c-2.973 3.799-7.597 5.946-12.387 5.946H82.085c-4.79 0-9.414-2.147-12.387-5.946l-57.806-71.845c-2.973-3.799-4.129-8.754-3.138-13.543l20.645-89.683c1.156-4.79 4.294-8.754 8.588-10.735l83.572-39.969c2.147-.826 4.625-1.321 6.937-1.321h0zm0-7.763h0c-3.468 0-6.937.826-10.24 2.312L34.684 42.446c-6.606 3.138-11.231 8.919-12.883 16.021L1.156 148.15c-1.652 7.102 0 14.369 4.625 20.15l57.806 71.845c4.459 5.615 11.231 8.754 18.333 8.754h92.655c7.102 0 13.874-3.138 18.333-8.754l57.806-71.845c4.625-5.615 6.276-13.048 4.625-20.15l-20.645-89.683c-1.652-7.102-6.276-12.883-12.883-16.021L138.57 2.477C135.432.991 131.964.165 128.495.165h0 0zm83.737 142.369h0 0c-.165 0-.165 0 0 0h-.165c-.165 0-.33 0-.33-.165-.33 0-.661-.165-.991-.165l-3.138-.33c-.495 0-.991 0-1.652-.165h-.165c-3.468-.33-6.276-.661-8.919-1.486-1.156-.495-1.486-1.156-1.817-1.817 0-.165-.165-.165-.165-.33h0l-2.147-.661a65.33 65.33 0 0 0-1.156-23.288c-1.817-7.763-4.955-15.03-9.249-21.636l1.652-1.486v-.33c0-.826.165-1.652.826-2.477 1.982-1.817 4.459-3.303 7.432-5.12h0c.495-.33.991-.495 1.486-.826.991-.495 1.817-.991 2.808-1.652.165-.165.495-.33.826-.661.165-.165.33-.165.33-.33h0c2.312-1.982 2.808-5.285 1.156-7.432-.826-1.156-2.312-1.817-3.799-1.817-1.321 0-2.477.495-3.634 1.321h0 0l-.33.33c-.33.165-.495.495-.826.661-.826.826-1.486 1.486-2.147 2.312-.33.33-.661.826-1.156 1.156h0c-2.312 2.477-4.459 4.459-6.606 5.946-.495.33-.991.495-1.486.495-.33 0-.661 0-.991-.165h-.33 0l-1.982 1.321c-2.147-2.312-4.459-4.294-6.772-6.276a65.96 65.96 0 0 0-34.519-13.708l-.165-2.147-.33-.33c-.495-.495-1.156-.991-1.321-2.147-.165-2.643.165-5.615.495-8.919v-.165c0-.495.165-1.156.33-1.652l.495-3.138v-.991-.495h0 0c0-2.973-2.312-5.45-5.12-5.45-1.321 0-2.643.661-3.634 1.652s-1.486 2.312-1.486 3.799h0 0v.33.991c0 1.156.165 2.147.495 3.138.165.495.165.991.33 1.652v.165c.33 3.303.826 6.276.495 8.919-.165 1.156-.826 1.652-1.321 2.147l-.33.33h0l-.165 2.147c-2.973.33-5.946.661-8.919 1.321-12.717 2.808-23.948 9.249-32.702 18.498l-1.652-1.156h-.33c-.33 0-.661.165-.991.165-.495 0-.991-.165-1.486-.495-2.147-1.486-4.294-3.634-6.606-6.111h0c-.33-.33-.661-.826-1.156-1.156-.661-.826-1.321-1.486-2.147-2.312-.165-.165-.495-.33-.826-.661-.165-.165-.33-.165-.33-.33h0a5.77 5.77 0 0 0-3.634-1.321c-1.486 0-2.973.661-3.799 1.817-1.652 2.147-1.156 5.45 1.156 7.432h0 0c.165 0 .165.165.33.165.33.165.495.495.826.661.991.661 1.817 1.156 2.808 1.652.495.165.991.495 1.486.826h0c2.973 1.817 5.45 3.303 7.432 5.12.826.826.826 1.652.826 2.477v.33h0l1.652 1.486c-.33.495-.661.826-.826 1.321-8.258 13.048-11.396 28.408-9.249 43.603l-2.147.661c0 .165-.165.165-.165.33a3.84 3.84 0 0 1-1.817 1.817c-2.477.826-5.45 1.156-8.919 1.486h-.165c-.495 0-1.156 0-1.652.165-.991 0-1.982.165-3.138.33-.33 0-.661.165-.991.165-.165 0-.33 0-.495.165h0 0c-2.973.661-4.79 3.468-4.294 6.111.495 2.312 2.643 3.799 5.285 3.799.495 0 .826 0 1.321-.165h0 0c.165 0 .33 0 .33-.165.33 0 .661-.165.991-.165a15.91 15.91 0 0 0 2.973-1.156c.495-.165.991-.495 1.486-.661h.165c3.138-1.156 5.946-2.147 8.588-2.477h.33c.991 0 1.652.495 2.147.826.165 0 .165.165.33.165h0l2.312-.33a65.32 65.32 0 0 0 21.636 31.05c2.312 1.817 4.625 3.303 7.102 4.79l-.991 2.147c0 .165.165.165.165.33.33.661.661 1.486.33 2.643-.991 2.477-2.477 4.955-4.294 7.763v.165c-.33.495-.661.826-.991 1.321-.661.826-1.156 1.652-1.817 2.643-.165.165-.33.495-.495.826 0 .165-.165.33-.165.33h0 0c-1.321 2.808-.33 5.946 2.147 7.102.661.33 1.321.495 1.982.495 1.982 0 3.964-1.321 4.955-3.138h0 0c0-.165.165-.33.165-.33.165-.33.33-.661.495-.826.495-1.156.661-1.982.991-2.973l.495-1.486h0c1.156-3.303 1.982-5.946 3.468-8.258.661-.991 1.486-1.156 2.147-1.486.165 0 .165 0 .33-.165h0l1.156-2.147a64.53 64.53 0 0 0 23.123 4.294c4.79 0 9.745-.495 14.369-1.652a73.41 73.41 0 0 0 8.588-2.477l.991 1.817c.165 0 .165 0 .33.165.826.165 1.486.495 2.147 1.486 1.321 2.312 2.312 5.12 3.468 8.258v.165l.495 1.486c.33.991.495 1.982.991 2.973.165.33.33.495.495.826 0 .165.165.33.165.33h0 0c.991 1.982 2.973 3.138 4.955 3.138.661 0 1.321-.165 1.982-.495 1.156-.661 2.147-1.652 2.477-2.973s.33-2.808-.33-4.129h0 0c0-.165-.165-.165-.165-.33-.165-.33-.33-.661-.495-.826-.495-.991-1.156-1.817-1.817-2.643-.33-.495-.661-.826-.991-1.321v-.165c-1.817-2.808-3.468-5.285-4.294-7.763-.33-1.156 0-1.817.165-2.643 0-.165.165-.165.165-.33h0l-.826-1.982c8.754-5.12 16.186-12.387 21.801-21.306 2.973-4.625 5.285-9.745 6.937-14.865l1.982.33c.165 0 .165-.165.33-.165.661-.33 1.156-.826 2.147-.826h.33c2.643.33 5.45 1.321 8.588 2.477h.165c.495.165.991.495 1.486.661a15.91 15.91 0 0 0 2.973 1.156c.33 0 .661.165.991.165.165 0 .33 0 .495.165h0c.495.165.826.165 1.321.165 2.477 0 4.625-1.652 5.285-3.799 0-1.982-1.817-4.625-4.79-5.45h0zm-76.47-8.093l-7.267 3.468-7.267-3.468-1.817-7.763 4.955-6.276h8.093l4.955 6.276-1.652 7.763h0zm43.107-17.177a52.07 52.07 0 0 1 1.156 16.681l-25.27-7.267c-2.312-.661-3.634-2.973-3.138-5.285.165-.661.495-1.321.991-1.817l19.985-18.003c2.808 4.625 4.955 9.91 6.276 15.69h0zm-14.204-25.6l-21.636 15.36c-1.817 1.156-4.294.826-5.781-.991-.495-.495-.661-1.156-.826-1.817l-1.486-26.921a50.13 50.13 0 0 1 29.729 14.369h0zm-47.897-13.543l5.285-.991-1.486 26.426c-.165 2.312-1.982 4.294-4.459 4.294-.661 0-1.486-.165-1.982-.495L92.16 91.665c6.772-6.772 15.195-11.396 24.609-13.543h0zm-32.537 23.453l19.654 17.507c1.817 1.486 1.982 4.294.495 6.111-.495.661-1.156 1.156-1.982 1.321l-25.6 7.432c-.991-11.231 1.486-22.627 7.432-32.372h0zm-4.459 44.759l26.261-4.459c2.147-.165 4.129 1.321 4.625 3.468.165.991.165 1.817-.165 2.643h0l-10.075 24.279c-9.249-5.946-16.681-15.03-20.645-25.93h0zm60.284 32.867c-3.799.826-7.597 1.321-11.561 1.321-5.781 0-11.396-.991-16.681-2.643l13.048-23.618c1.321-1.486 3.468-2.147 5.285-1.156.826.495 1.486 1.156 1.982 1.817h0l12.717 22.957c-1.486.495-3.138.826-4.79 1.321h0zm32.206-22.957c-4.129 6.606-9.579 11.892-15.855 16.021l-10.405-24.939c-.495-1.982.33-4.129 2.312-5.12.661-.33 1.486-.495 2.312-.495l26.426 4.459c-.991 3.634-2.643 6.937-4.79 10.075h0z" fill="#fff"/></svg>