<svg xmlns="http://www.w3.org/2000/svg" width="256" height="295" preserveAspectRatio="xMidYMid" xmlnsV="https://vecta.io/nano"><defs><filter x="-50%" y="-50%" width="200%" height="200%" id="A"><feOffset in="SourceAlpha"/><feGaussianBlur stdDeviation="6.5"/></filter><linearGradient x1="48.5477412%" y1="115.276174%" x2="51.0473804%" y2="41.3637237%" id="B"><stop stop-color="#ffeed7" offset="0%"/><stop stop-color="#bdbfc2" offset="100%"/></linearGradient><linearGradient x1="54.4065463%" y1="2.40410545%" x2="46.1753957%" y2="90.5422349%" id="C"><stop stop-color="#fff" stop-opacity=".8" offset="0%"/><stop stop-color="#fff" stop-opacity="0" offset="100%"/></linearGradient><linearGradient x1="51.859653%" y1="88.2477484%" x2="47.9469396%" y2="9.74782136%" id="D"><stop stop-color="#ffeed7" offset="0%"/><stop stop-color="#bdbfc2" offset="100%"/></linearGradient><linearGradient x1="49.9251097%" y1="85.4900173%" x2="49.9236843%" y2="13.8109272%" id="E"><stop stop-color="#ffeed7" offset="0%"/><stop stop-color="#bdbfc2" offset="100%"/></linearGradient><linearGradient x1="53.9014071%" y1="3.10177585%" x2="45.9555354%" y2="93.8949571%" id="F"><stop stop-color="#fff" stop-opacity=".65" offset="0%"/><stop stop-color="#fff" stop-opacity="0" offset="100%"/></linearGradient><linearGradient x1="45.5928761%" y1="5.47459052%" x2="54.811359%" y2="93.5235162%" id="G"><stop stop-color="#fff" stop-opacity=".65" offset="0%"/><stop stop-color="#fff" stop-opacity="0" offset="100%"/></linearGradient><linearGradient x1="49.9844987%" y1="89.8452442%" x2="49.9844987%" y2="40.6316864%" id="H"><stop stop-color="#ffeed7" offset="0%"/><stop stop-color="#bdbfc2" offset="100%"/></linearGradient><linearGradient x1="53.5047131%" y1="99.97524%" x2="42.7455968%" y2="23.5451715%" id="I"><stop stop-color="#ffeed7" offset="0%"/><stop stop-color="#bdbfc2" offset="100%"/></linearGradient><linearGradient x1="49.8413363%" y1="13.2289558%" x2="50.2412612%" y2="94.6729694%" id="J"><stop stop-color="#fff" stop-opacity=".8" offset="0%"/><stop stop-color="#fff" stop-opacity="0" offset="100%"/></linearGradient><linearGradient x1="49.9272298%" y1="37.3270337%" x2="50.7270446%" y2="92.7824735%" id="K"><stop stop-color="#fff" stop-opacity=".65" offset="0%"/><stop stop-color="#fff" stop-opacity="0" offset="100%"/></linearGradient><linearGradient x1="49.8755597%" y1="2.29900584%" x2="49.8755597%" y2="81.203617%" id="L"><stop stop-color="#fff" stop-opacity=".65" offset="0%"/><stop stop-color="#fff" stop-opacity="0" offset="100%"/></linearGradient><linearGradient x1="49.8334391%" y1="2.27189065%" x2="49.8240398%" y2="71.7989617%" id="M"><stop stop-color="#fff" stop-opacity=".65" offset="0%"/><stop stop-color="#fff" stop-opacity="0" offset="100%"/></linearGradient><linearGradient x1="53.4670683%" y1="48.9213861%" x2="38.9488708%" y2="98.0999776%" id="N"><stop stop-color="#ffa63f" offset="0%"/><stop stop-color="#ff0" offset="100%"/></linearGradient><linearGradient x1="52.3731508%" y1="143.008909%" x2="47.57909%" y2="-64.6215389%" id="O"><stop stop-color="#ffeed7" offset="0%"/><stop stop-color="#bdbfc2" offset="100%"/></linearGradient><linearGradient x1="30.580815%" y1="34.0241079%" x2="65.8867024%" y2="89.175349%" id="P"><stop stop-color="#ffa63f" offset="0%"/><stop stop-color="#ff0" offset="100%"/></linearGradient><linearGradient x1="59.5715091%" y1="-17.2155207%" x2="48.3608522%" y2="66.1184465%" id="Q"><stop stop-color="#fff" stop-opacity=".65" offset="0%"/><stop stop-color="#fff" stop-opacity="0" offset="100%"/></linearGradient><linearGradient x1="47.7689553%" y1="1.56481301%" x2="51.3733028%" y2="104.312856%" id="R"><stop stop-color="#fff" stop-opacity=".65" offset="0%"/><stop stop-color="#fff" stop-opacity="0" offset="100%"/></linearGradient><linearGradient x1="43.5495626%" y1="4.5334861%" x2="57.1143288%" y2="92.8267174%" id="S"><stop stop-color="#fff" stop-opacity=".65" offset="0%"/><stop stop-color="#fff" stop-opacity="0" offset="100%"/></linearGradient><linearGradient x1="49.7328042%" y1="17.6085216%" x2="50.5582487%" y2="99.3854667%" id="T"><stop stop-color="#ffa63f" offset="0%"/><stop stop-color="#ff0" offset="100%"/></linearGradient><linearGradient x1="50.1697217%" y1="2.89048531%" x2="49.6802359%" y2="94.1704279%" id="U"><stop stop-color="#fff" stop-opacity=".65" offset="0%"/><stop stop-color="#fff" stop-opacity="0" offset="100%"/></linearGradient></defs><g transform="translate(10)" fill="none"><g fill="#000"><path d="M235.125 249.359c0 17.356-52.618 31.497-117.541 31.497S.044 266.806.044 249.359h0c0-17.356 52.618-31.497 117.541-31.497s117.449 14.142 117.541 31.497h0 0z" fill-opacity=".2" filter="url(#A)"/><path d="M53.213 215.474c-11.387-16.346-13.591-69.606 12.948-102.389C79.292 97.382 82.69 86.454 83.7 71.67c.735-16.805-11.846-66.851 35.538-70.616 48.026-3.857 45.363 43.527 45.088 68.596-.184 21.121 15.519 33.15 26.355 49.679 19.927 30.304 18.274 82.462-3.765 110.746-27.916 35.354-51.791 20.019-67.678 21.304-29.753 1.745-30.763 17.539-66.025-35.905h0z"/></g><path d="M169.101 122.451c8.265 7.622 29.661 41.69-4.224 62.995-11.938 7.438 10.652 35.721 21.488 22.039 19.192-24.61 6.979-63.913-4.591-77.963-7.714-9.918-19.651-13.774-12.672-7.071h0z" fill="url(#B)"/><path d="M166.805 117.86c13.591 11.019 38.293 49.588 2.204 74.749-11.846 7.805 10.468 32.507 23.049 19.927 43.619-43.894-1.102-94.308-16.529-111.664-13.774-15.152-25.988 3.489-8.724 16.988h0z" stroke="#000" stroke-width=".977" fill="#000"/><path d="M147.245 25.021c-.459 12.581-14.325 23.508-30.946 24.518s-29.661-8.54-29.202-21.121h0C87.557 15.838 101.423 4.91 118.044 3.9c16.621-.918 29.661 8.54 29.202 21.121h0 0z" fill="url(#C)"/><path d="M107.483 54.957c.459 8.173-3.398 15.06-8.724 15.335S88.75 64.232 88.291 56.059h0c-.459-8.173 3.398-15.06 8.724-15.335s10.009 6.061 10.468 14.233h0 0z" fill="url(#D)"/><path d="M117.125 55.6c.184 9.458 6.336 16.988 13.682 16.805s13.132-7.989 12.948-17.539h0c-.184-9.458-6.336-16.988-13.682-16.805S116.85 46.142 117.125 55.6h0 0z" fill="url(#E)"/><path d="M123.186 57.712c-.092 5.234 2.479 9.458 5.877 9.458 3.306 0 6.153-4.224 6.244-9.367h0c.092-5.234-2.479-9.458-5.877-9.458s-6.153 4.224-6.244 9.367h0 0zm-21.212.092c.459 4.316-1.194 7.989-3.581 8.356-2.388.275-4.683-2.939-5.142-7.254h0c-.459-4.316 1.194-7.989 3.581-8.356 2.388-.275 4.683 2.939 5.142 7.254h0 0z" fill="#000"/><path d="M124.564 54.773c-.275 2.939 1.102 5.326 3.03 5.51s3.765-2.112 4.04-4.959h0c.275-2.939-1.102-5.326-3.03-5.51s-3.765 2.112-4.04 4.959h0 0z" fill="url(#F)"/><path d="M99.953 55.508c.275 2.388-.735 4.5-2.204 4.683s-2.847-1.653-3.122-4.132h0c-.275-2.388.735-4.5 2.204-4.683s2.847 1.745 3.122 4.132h0 0z" fill="url(#G)"/><path d="M71.027 145.684c6.52-14.784 20.386-40.772 20.661-60.882 0-15.978 47.843-19.835 51.7-3.857s13.591 39.854 19.835 51.424c6.244 11.479 24.335 48.118 5.051 80.075-17.356 28.283-69.974 50.689-98.073-3.857-9.55-18.917-7.805-42.333.826-62.903h0z" fill="url(#H)"/><path d="M65.15 134.664c-5.602 10.56-17.172 38.293 11.111 53.444 30.395 16.162 30.304 49.312-6.244 33.518-33.426-14.233-18.641-71.902-9.275-85.676 6.061-9.642 15.244-21.488 4.408-1.286h0z" fill="url(#I)"/><path d="M69.925 122.727c-8.907 14.509-30.212 48.669-1.653 66.484 38.384 23.6 27.549 47.108-7.53 25.896-49.404-29.569-5.969-89.258 13.774-112.031 22.59-25.528 4.316 4.683-4.591 19.651h0z" stroke="#000" stroke-width="1.25" fill="#000"/><path d="M156.428 151.285c0 16.162-15.519 37.099-42.149 36.915-27.457.184-39.119-20.753-39.119-36.915s18.182-29.293 40.588-29.293c22.498.092 40.68 13.132 40.68 29.293h0z" fill="url(#J)"/><path d="M141.919 100.504c-.275 16.713-11.203 20.661-24.977 20.661s-23.784-2.479-24.977-20.661c0-11.387 11.203-17.998 24.977-17.998 13.774-.092 24.977 6.52 24.977 17.998h0z" fill="url(#K)"/><path d="M58.63 126.216c8.999-13.682 28.008-34.711 3.581 2.939-19.835 31.038-7.346 50.965-.918 56.475 18.549 16.529 17.815 27.64 3.214 18.917-31.314-18.641-24.794-50.047-5.877-78.33h0z" fill="url(#L)"/><path d="M188.936 131.818c-7.805-16.07-32.599-56.842 1.194-9.458 30.763 42.884 9.183 72.728 5.326 75.667s-16.805 8.907-13.04-1.469c3.857-10.377 22.957-30.028 6.52-64.739h0z" fill="url(#M)"/><path d="M51.835 258.542c-20.57-10.928-50.414 2.112-39.578-27.457 2.204-6.704-3.214-16.805.275-23.325 4.132-7.989 13.04-6.244 18.366-11.57 5.234-5.51 8.54-15.06 18.366-13.591 9.734 1.469 16.254 13.407 23.049 28.1 5.051 10.468 22.865 25.253 21.672 37.007-1.469 17.998-21.947 21.396-42.149 10.836h0z" stroke="#e68c3f" stroke-width="6.25" fill="url(#N)"/><path d="M201.608 189.119c-3.122 5.877-16.162 15.335-24.886 12.856-8.816-2.388-12.856-15.795-11.111-25.988 1.653-11.387 11.111-12.03 23.049-6.336 12.856 6.336 16.713 11.662 12.948 19.468h0z" fill="url(#O)"/><path d="M194.445 253.491c15.06-18.274 48.577-14.509 25.988-39.578-4.775-5.418-3.306-16.988-9.183-21.947-6.887-6.061-14.509-1.102-21.488-4.224-6.979-3.398-14.325-9.918-22.865-5.326-8.54 4.683-9.458 16.805-10.285 32.783-.735 11.479-11.203 30.671-5.602 41.231 8.081 16.346 29.11 14.142 43.435-2.939h0z" stroke="#e68c3f" stroke-width="6.251" fill="url(#P)"/><path d="M187.925 229.064c23.325-34.436 5.969-34.16.092-36.823-5.877-2.755-12.03-8.173-18.917-4.408-6.887 3.857-7.254 13.774-7.438 26.814-.275 9.367-8.081 25.069-3.398 33.793 5.693 10.193 19.468-4.591 29.661-19.376h0z" fill="url(#Q)"/><path d="M47.06 234.023c-34.895-22.59-18.549-30.304-13.315-33.885 6.336-4.591 6.428-13.407 14.233-12.581s12.397 10.468 17.631 22.406c3.857 8.54 17.264 19.927 16.254 29.753-1.286 11.57-19.743 3.949-34.803-5.693h0z" fill="url(#R)"/><path d="M199.588 188.843c-2.755 4.775-13.958 12.305-21.396 10.285-7.622-1.928-11.111-12.672-9.55-20.753 1.377-9.183 9.55-9.642 19.835-5.051 10.928 4.959 14.325 9.183 11.111 15.519h0z" fill="#000"/><path d="M192.058 186.18c-1.745 3.306-9.091 8.54-14.233 7.163s-7.714-8.816-6.887-14.417c.735-6.336 6.244-6.704 13.223-3.581 7.53 3.489 9.918 6.428 7.897 10.836h0z" fill="url(#S)"/><g stroke="#e68c3f"><path d="M97.107 66.344c3.673-3.398 12.581-13.774 29.477-2.939 3.122 2.02 5.693 2.204 11.662 4.775 12.03 4.959 6.336 16.896-6.52 20.937-5.51 1.745-10.468 8.448-20.386 7.805-8.54-.459-10.744-6.061-15.978-9.091-9.275-5.234-10.652-12.305-5.602-16.07l7.346-5.418h0z" stroke-width="3.75" fill="url(#T)"/><path d="M138.43 75.986c-5.051.275-15.978 11.203-27.457 11.203S92.607 76.537 90.862 76.537" stroke-width="2.5"/></g><path d="M102.8 65.426c1.837-1.653 7.622-6.153 15.244-1.561 1.653.918 3.306 1.928 5.693 3.306 4.867 2.847 2.479 6.979-3.398 9.55-2.663 1.102-7.071 3.489-10.377 3.306-3.673-.367-6.153-2.755-8.54-4.316-4.5-2.939-4.224-5.418-2.112-7.346 1.561-1.469 3.306-2.847 3.489-2.939h0z" fill="url(#U)"/></g></svg>