<svg xmlns="http://www.w3.org/2000/svg" width="256" height="256" preserveAspectRatio="xMidYMid" xmlnsV="https://vecta.io/nano"><path d="M254.251 124.862l-10.747-6.653-.306-3.131 9.236-8.615c.939-.876 1.36-2.172 1.106-3.427-.247-1.26-1.13-2.297-2.331-2.744l-11.806-4.415-.925-3.048 7.365-10.229a3.7 3.7 0 0 0 .416-3.578c-.489-1.181-1.558-2.028-2.823-2.236l-12.45-2.025-1.497-2.796 5.232-11.484c.536-1.169.426-2.529-.289-3.591a3.68 3.68 0 0 0-3.204-1.641l-12.636.44-1.996-2.421 2.903-12.308c.294-1.25-.076-2.558-.986-3.466a3.7 3.7 0 0 0-3.463-.986l-12.305 2.901-2.426-1.996.443-12.636c.049-1.279-.575-2.495-1.641-3.204s-2.421-.822-3.588-.291l-11.481 5.234-2.796-1.499-2.03-12.452a3.7 3.7 0 0 0-2.236-2.823c-1.181-.492-2.536-.333-3.576.416l-10.236 7.365-3.043-.922-4.415-11.809a3.69 3.69 0 0 0-2.744-2.336c-1.257-.247-2.551.171-3.424 1.106l-8.615 9.243-3.131-.306-6.653-10.75A3.7 3.7 0 0 0 128.007 0a3.69 3.69 0 0 0-3.143 1.751l-6.653 10.75-3.133.306-8.617-9.243a3.71 3.71 0 0 0-3.424-1.106c-1.26.252-2.297 1.132-2.744 2.336l-4.415 11.809-3.045.922-10.234-7.365c-1.04-.751-2.395-.91-3.578-.416s-2.03 1.56-2.236 2.823l-2.03 12.452-2.796 1.499-11.481-5.234c-1.167-.533-2.527-.423-3.588.291S55.2 23.5 55.248 24.78l.44 12.636-2.426 1.996-12.305-2.901a3.71 3.71 0 0 0-3.466.986c-.91.907-1.279 2.216-.986 3.466l2.898 12.308-1.991 2.421-12.636-.44a3.72 3.72 0 0 0-3.204 1.641c-.714 1.062-.822 2.421-.291 3.591l5.234 11.484-1.499 2.796-12.45 2.025a3.7 3.7 0 0 0-2.823 2.236 3.71 3.71 0 0 0 .416 3.578l7.365 10.229-.925 3.048-11.809 4.415c-1.199.448-2.081 1.485-2.331 2.744a3.7 3.7 0 0 0 1.106 3.427l9.238 8.615-.306 3.131-10.747 6.653C.663 125.535 0 126.723 0 128.007s.663 2.473 1.751 3.143l10.747 6.653.306 3.131-9.238 8.617c-.937.873-1.355 2.17-1.106 3.424a3.7 3.7 0 0 0 2.331 2.744l11.809 4.415.925 3.048-7.365 10.231c-.748 1.042-.907 2.395-.416 3.576s1.56 2.033 2.825 2.236l12.447 2.025 1.499 2.801-5.234 11.479a3.69 3.69 0 0 0 .291 3.591c.714 1.069 1.93 1.693 3.204 1.641l12.631-.443 1.996 2.426-2.898 12.31a3.68 3.68 0 0 0 .986 3.459c.903.912 2.216 1.277 3.466.983l12.305-2.898 2.426 1.991-.44 12.638c-.049 1.279.575 2.492 1.641 3.207a3.69 3.69 0 0 0 3.588.286l11.481-5.232 2.796 1.499 2.03 12.445a3.69 3.69 0 0 0 2.236 2.825c1.181.492 2.539.333 3.578-.413l10.229-7.37 3.048.927 4.415 11.804c.448 1.199 1.485 2.086 2.744 2.331 1.257.254 2.551-.166 3.424-1.106l8.617-9.238 3.133.313 6.653 10.747a3.7 3.7 0 0 0 3.143 1.751c1.282 0 2.473-.665 3.145-1.751l6.653-10.747 3.131-.313 8.615 9.238a3.68 3.68 0 0 0 3.424 1.106 3.69 3.69 0 0 0 2.744-2.331l4.415-11.804 3.048-.927 10.231 7.37a3.7 3.7 0 0 0 3.576.413c1.184-.487 2.03-1.56 2.236-2.825l2.03-12.445 2.796-1.499 11.481 5.232a3.69 3.69 0 0 0 3.588-.286c1.066-.714 1.688-1.925 1.641-3.207l-.44-12.638 2.424-1.991 12.305 2.898c1.25.294 2.561-.071 3.463-.983a3.68 3.68 0 0 0 .986-3.459l-2.898-12.31 1.991-2.426 12.636.443a3.68 3.68 0 0 0 3.204-1.641c.714-1.066.824-2.424.289-3.591l-5.232-11.479 1.497-2.801 12.45-2.025a3.68 3.68 0 0 0 2.823-2.236c.489-1.181.335-2.534-.416-3.576l-7.365-10.231.925-3.048 11.806-4.415c1.201-.45 2.086-1.485 2.331-2.744.254-1.257-.166-2.551-1.106-3.424l-9.236-8.617.306-3.131 10.747-6.653a3.69 3.69 0 0 0 1.751-3.143c0-1.282-.66-2.473-1.749-3.145h0zm-71.932 89.156c-4.104-.885-6.714-4.931-5.834-9.047s4.921-6.729 9.023-5.843c4.104.878 6.719 4.931 5.838 9.04s-4.926 6.729-9.028 5.851h0zm-3.652-24.699a6.93 6.93 0 0 0-8.231 5.332l-3.816 17.806c-11.775 5.344-24.851 8.314-38.621 8.314-14.086 0-27.446-3.116-39.431-8.688l-3.813-17.806a6.93 6.93 0 0 0-8.228-5.33l-15.72 3.375a93.27 93.27 0 0 1-8.128-9.581h76.489c.866 0 1.443-.157 1.443-.944v-27.057c0-.788-.577-.944-1.443-.944h-22.37v-17.151h24.195c2.209 0 11.809.631 14.879 12.902.961 3.774 3.072 16.05 4.515 19.981 1.438 4.408 7.294 13.213 13.533 13.213h38.115c.433 0 .895-.049 1.382-.137a93.92 93.92 0 0 1-8.668 10.17l-16.082-3.456h0zM72.876 213.646a7.6 7.6 0 0 1-9.028-5.843 7.62 7.62 0 0 1 5.836-9.047 7.61 7.61 0 0 1 9.028 5.851c.878 4.109-1.734 8.16-5.836 9.04h0zM43.86 95.985c1.702 3.843-.029 8.345-3.867 10.045a7.6 7.6 0 0 1-10.031-3.874 7.62 7.62 0 0 1 3.867-10.045 7.6 7.6 0 0 1 10.031 3.874h0zm-8.918 21.14l16.375-7.277c3.498-1.553 5.078-5.653 3.525-9.158l-3.373-7.626h13.264v59.788H37.973a93.7 93.7 0 0 1-3.566-25.672c0-3.397.183-6.756.536-10.055h0zm71.861-5.807V93.696h31.587c1.631 0 11.52 1.886 11.52 9.28 0 6.139-7.585 8.341-13.822 8.341h-29.285v.002zm114.792 15.862c0 2.338-.086 4.652-.257 6.949h-9.603c-.961 0-1.348.631-1.348 1.573v4.41c0 10.38-5.853 12.638-10.982 13.213-4.885.55-10.3-2.045-10.968-5.034-2.881-16.207-7.683-19.668-15.265-25.648 9.409-5.975 19.2-14.79 19.2-26.59 0-12.741-8.734-20.766-14.688-24.701-8.353-5.506-17.601-6.609-20.096-6.609H58.279c13.467-15.03 31.719-25.677 52.362-29.552l11.706 12.281c2.646 2.771 7.03 2.874 9.798.225l13.098-12.528c27.446 5.11 50.682 22.194 64.073 45.634l-8.967 20.252a6.95 6.95 0 0 0 3.527 9.158l17.263 7.668a95.85 95.85 0 0 1 .455 9.299h0zM122.352 24.745c3.033-2.906 7.844-2.791 10.747.247a7.62 7.62 0 0 1-.252 10.765c-3.033 2.906-7.844 2.793-10.747-.249-2.896-3.04-2.786-7.856.252-10.762h0zm88.983 71.609c1.7-3.843 6.191-5.577 10.028-3.872a7.62 7.62 0 0 1 3.867 10.045c-1.7 3.845-6.191 5.579-10.031 3.874-3.833-1.702-5.564-6.2-3.865-10.048h0z"/></svg>